# xmcd
#
# Track frame offsets:
#	150
#	15404
#	23328
#	40474
#	66378
#	75738
#	91695
#	107049
#	125913
#	141296
#	154759
#	167626
#	179600
#	195012
#	209662
#	224781
#	237562
#	254244
#	272576
#	308056
#	323982
#
# Disc length: 4563 seconds
#
# Revision: 0
# Processed by: cddbd v1.5.1PL0 Copyright (c) Steve Scherf et al.
# Submitted via: EasyCDDAExtractor 7.5.0.1
#
DISCID=3611d115
DTITLE=Blues Brothers - The Best Of Blues Brothers
DYEAR=1900
DGENRE=
TTITLE0=Everybody Needs Somebody To Love
TTITLE1=Soul Finger
TTITLE2=Peter Gunn Theme
TTITLE3=Green onions
TTITLE4=Perry Mason theme
TTITLE5=Riot in cell number nine
TTITLE6=Minnie the moocher
TTITLE7=I Don't Know
TTITLE8=Flip Flop And Fly
TTITLE9=The old landmark
TTITLE10=Rubber Biscuit
TTITLE11=Theme from rawhide
TTITLE12=Expressway to your heart
TTITLE13=Think
TTITLE14=Jailhouse rock
TTITLE15=Shake a tail feather
TTITLE16=Groove Me
TTITLE17="B" Movie Box Car Blues
TTITLE18=Sweet home Chicago
TTITLE19=Who's making love
TTITLE20=Going back to miami
EXTD=
EXTT0=
EXTT1=
EXTT2=
EXTT3=
EXTT4=
EXTT5=
EXTT6=
EXTT7=
EXTT8=
EXTT9=
EXTT10=
EXTT11=
EXTT12=
EXTT13=
EXTT14=
EXTT15=
EXTT16=
EXTT17=
EXTT18=
EXTT19=
EXTT20=
PLAYORDER=
